<svg xmlns="http://www.w3.org/2000/svg" viewBox="0 0 97 51" width="97" height="51">
	<style>
		tspan { white-space:pre }
		.shp0 { fill: #ffffff } 
		.shp1 { fill: #fef6ef } 
	</style>
	<path id="Layer" fill-rule="evenodd" class="shp0" d="M87 8C85.12 7.82 83.8 7.56 82 7C84.09 3.36 86.3 3.97 87 8ZM94 5L94 7C92.2 7.56 90.88 7.82 89 8L89 4C90.88 4.18 92.2 4.44 94 5ZM32.01 29C25.48 13.1 49.55 2.21 55.3 19C57.47 25.34 57.57 39.75 52.72 44.77C48.61 49.04 36.34 52.04 34 45C39.55 45 46.61 46.13 50.26 40.89C54.68 34.53 53.66 15.66 44 14.5C35.82 13.52 32.94 24.42 37.51 29.77C40.86 33.68 45.54 32.83 50 32C47.07 41.06 34.75 35.67 32.01 29ZM60.74 15.05C64.79 9 73.98 8.68 77.86 15.1C81.17 20.59 80.74 30.1 79 36L77 36C75.36 30.44 77.68 23.19 74.82 18.11C72.32 13.67 66.68 13.67 64.18 18.11C61.05 23.66 66.34 33.57 59 36C59 29.89 57.2 20.35 60.74 15.05ZM83 36C83 27.68 81.63 18 84 10C88.48 14.39 89.93 33.7 83 36ZM92 10C94.37 18 93 27.68 93 36L90 36L90 10L92 10ZM20.24 15.11C21.17 17.39 20.52 19.72 20 22L24 22C24.12 18.31 24.31 16.22 28 15L28 36C23.3 34.44 24 30.35 24 26L21 26C20.95 28.21 21.09 30.67 19.82 32.61C15.08 39.85 6.61 34.11 5 28L6 27L8 27C9.05 28.75 10.06 31.02 12.12 31.83C14.61 32.8 17.01 30.71 16.41 28.1C15.98 26.23 14.33 25.17 13 24L13 22C20.33 17.66 13.02 10.78 9 19L5 18C7.26 12.38 16.9 6.85 20.24 15.11Z" />
	<path id="Layer" class="shp1" d="M89 11L89 35C91.35 29.4 91.35 16.6 89 11Z" />
</svg>